<?xml version="1.0" encoding="UTF-8"?>
<svg xmlns="http://www.w3.org/2000/svg" xmlns:xlink="http://www.w3.org/1999/xlink" viewBox="0 0 800 423" width="100%" preserveAspectRatio="xMidYMin meet" role="img" aria-label="zashari.website animated preview">
  <defs>
    <clipPath id="clip">
      <rect x="0" y="0" width="800" height="423" rx="10" />
    </clipPath>
  </defs>

  <g clip-path="url(#clip)">
    <rect x="0" y="0" width="800" height="38" fill="#1a1a1a" />
    <image x="0" y="38" width="800" height="385" href="./website.gif" xlink:href="./website.gif" preserveAspectRatio="xMidYMid slice" />

    <rect x="538" y="365" width="252" height="48" rx="8" fill="#ff8c42" fill-opacity="0.35">
      <animate attributeName="fill-opacity" values="0.45;0;0.45" dur="2.2s" repeatCount="indefinite" />
    </rect>
    <rect x="546" y="374" width="240" height="36" rx="4" fill="#000000" fill-opacity="0.45" />
    <rect x="544" y="371" width="194" height="36" rx="4" fill="#0a0a0a" />
    <rect x="734" y="371" width="8" height="36" fill="#0a0a0a" />
    <rect x="738" y="371" width="46" height="36" rx="4" fill="#ff8c42" />
    <rect x="738" y="371" width="6" height="36" fill="#ff8c42" />
    <text x="641" y="394" text-anchor="middle"
          font-family="'JetBrains Mono','Fira Code','SF Mono','Menlo','Consolas',monospace"
          font-size="12" font-weight="700" letter-spacing="0.6" fill="#ffffff">VISIT ZASHARI.WEBSITE</text>
    <text x="761" y="395" text-anchor="middle"
          font-family="'JetBrains Mono','Fira Code','SF Mono','Menlo','Consolas',monospace"
          font-size="18" font-weight="700" fill="#0a0a0a">&#8594;</text>
  </g>

  <circle cx="20" cy="19" r="6" fill="#ff5f57" />
  <circle cx="40" cy="19" r="6" fill="#febc2e" />
  <circle cx="60" cy="19" r="6" fill="#28c840" />
  <circle cx="100" cy="19" r="3" fill="#22c55e">
    <animate attributeName="opacity" values="1;0.3;1" dur="2s" repeatCount="indefinite" />
  </circle>

  <rect x="250" y="9" width="300" height="20" rx="4" fill="#0a0a0a" stroke="#303030" stroke-width="1" />
  <text x="400" y="23" text-anchor="middle" font-family="'JetBrains Mono','Fira Code','SF Mono','Menlo','Consolas',monospace" font-size="12">
    <tspan fill="#6b7280">https://</tspan><tspan fill="#d1d5db">zashari.website</tspan>
  </text>

  <rect x="0.5" y="0.5" width="799" height="422" rx="10" fill="none" stroke="#2d2d2d" stroke-width="1" />
</svg>